<svg viewBox="0 0 500 500" xmlns="http://www.w3.org/2000/svg">
  <defs></defs>
  <path d="M 357.487 128.613 L 107.143 128.613 L 107.143 450.592 C 107.143 469.997 122.97 485.687 142.444 485.687 L 357.418 485.687 C 376.961 485.687 392.788 469.997 392.788 450.592 L 392.788 128.682 L 357.487 128.682 L 357.487 128.613 Z" style="fill: rgb(158, 47, 47);"></path>
  <path d="M 414.258 82.576 C 414.258 76.452 409.028 71.497 402.56 71.497 L 97.44 71.497 C 90.971 71.497 85.742 76.452 85.742 82.576 L 85.742 117.603 C 85.742 123.727 90.971 128.682 97.44 128.682 L 402.56 128.682 C 409.028 128.682 414.258 123.727 414.258 117.603 L 414.258 82.576 Z" style="fill: rgb(158, 47, 47);"></path>
  <path d="M 402.56 57.184 L 329.136 57.184 L 329.136 14.313 C 329.136 6.4 322.736 0 314.822 0 L 186.347 0 C 178.434 0 172.034 6.4 172.034 14.313 L 172.034 57.184 L 97.44 57.184 C 83.127 57.184 71.497 68.538 71.497 82.508 L 71.497 117.534 C 71.497 129.989 80.787 140.311 92.898 142.444 L 92.898 450.592 C 92.898 477.842 115.125 500 142.513 500 L 357.487 500 C 384.875 500 407.101 477.842 407.101 450.592 L 407.101 142.444 C 419.281 140.311 428.502 129.989 428.502 117.534 L 428.502 82.508 C 428.571 68.607 416.873 57.184 402.56 57.184 Z M 200.592 28.626 L 300.578 28.626 L 300.578 57.184 L 200.592 57.184 L 200.592 28.626 Z M 99.986 85.811 L 399.945 85.811 L 399.945 114.368 L 99.986 114.368 L 99.986 85.811 Z M 378.544 450.661 C 378.544 462.153 369.116 471.511 357.487 471.511 L 142.513 471.511 C 130.883 471.511 121.456 462.153 121.456 450.661 L 121.456 142.926 L 378.544 142.926 L 378.544 450.661 Z" fill="#211F1E"></path>
  <path d="M 250 429.191 C 257.913 429.191 264.313 422.791 264.313 414.878 L 264.313 200.661 C 264.313 192.747 257.913 186.347 250 186.347 C 242.086 186.347 235.687 192.747 235.687 200.661 L 235.687 414.946 C 235.687 422.791 242.086 429.191 250 429.191 Z M 178.571 429.191 C 186.485 429.191 192.885 422.791 192.885 414.878 L 192.885 200.661 C 192.885 192.747 186.485 186.347 178.571 186.347 C 170.658 186.347 164.258 192.747 164.258 200.661 L 164.258 414.946 C 164.327 422.791 170.727 429.191 178.571 429.191 Z M 321.428 429.672 C 329.342 429.672 335.742 423.273 335.742 415.359 L 335.742 201.073 C 335.742 193.16 329.342 186.76 321.428 186.76 C 313.515 186.76 307.115 193.16 307.115 201.073 L 307.115 415.359 C 307.115 423.273 313.515 429.672 321.428 429.672 Z" fill="#211F1E"></path>
</svg>