<svg viewBox="0 0 500 500" xmlns="http://www.w3.org/2000/svg">
  <defs></defs>
  <g transform="matrix(1.617003, 0, 0, 1.617003, -154.250778, -154.250793)">
    <polygon style="fill: rgb(255, 248, 239);" points="170.633 311.736 188.445 341.162 170.633 350.316 154.14 342.469"></polygon>
    <path style="fill: rgb(122, 201, 67);" d="M 311.772 283.528 L 353.993 354.148 L 270.871 354.148 L 248.442 314.914 L 264.274 285.489 L 284.065 295.297 C 284.725 295.297 285.384 295.297 286.704 295.297 C 288.023 295.297 288.683 295.297 290.002 294.644 L 311.772 283.528 Z"></path>
    <path style="fill: rgb(108, 211, 216);" d="M 326.285 210.291 C 337.5 210.291 346.076 201.136 346.076 190.674 C 346.076 180.212 337.5 171.057 326.285 171.057 C 315.071 171.057 306.495 180.212 306.495 190.674 C 306.495 201.136 315.071 210.291 326.285 210.291 Z M 108.586 164.518 L 359.27 164.518 L 359.27 337.147 L 292.641 226.639 C 291.322 224.677 288.683 223.369 286.704 223.369 C 284.065 223.369 282.086 224.677 280.767 226.639 L 240.525 301.183 L 187.09 207.022 C 185.771 205.06 183.132 203.752 181.153 203.752 C 178.514 203.752 176.535 205.06 175.216 207.022 L 108.586 333.878 L 108.586 164.518 Z"></path>
    <circle style="fill: rgb(255, 125, 0);" cx="278.964" cy="139.131" r="8" transform="matrix(0.824617, 0, 0, 0.81737, -19.824131, 145.702637)"></circle>
    <path style="" d="M 210.214 252.885 C 206.916 252.885 203.617 256.155 203.617 259.424 C 203.617 262.694 206.916 265.963 210.214 265.963 C 213.513 265.963 216.811 262.694 216.811 259.424 C 216.811 256.155 213.513 252.885 210.214 252.885 Z M 190.424 259.424 C 190.424 248.962 199 239.807 210.214 239.807 C 221.429 239.807 230.005 248.962 230.005 259.424 C 230.005 269.886 221.429 279.041 210.214 279.041 C 199 279.041 190.424 269.886 190.424 259.424 Z"></path>
    <polygon style="fill: rgb(217, 205, 193);" points="181.153 224.023 212.158 278.296 181.153 288.758 152.126 278.95"></polygon>
    <path style="fill: rgb(103, 188, 52);" d="M 179.174 301.836 C 179.833 301.836 180.493 301.836 181.153 301.836 C 181.812 301.836 182.472 301.836 183.132 301.836 L 218.755 290.067 L 255.698 354.148 L 112.545 354.148 L 146.189 290.72 L 179.174 301.836 Z"></path>
    <path style="" d="M 286.704 242.986 L 270.211 273.065 L 286.704 280.912 L 304.516 271.757 L 286.704 242.986 Z M 212.158 278.296 L 181.153 224.023 L 152.126 278.95 L 181.153 288.758 L 212.158 278.296 Z M 292.641 226.639 L 359.27 337.147 L 359.27 164.518 L 108.586 164.518 L 108.586 333.878 L 175.216 207.022 C 176.535 205.06 178.514 203.752 181.153 203.752 C 183.792 203.752 185.771 205.06 187.09 207.022 L 240.525 301.183 L 280.767 226.639 C 282.086 224.677 284.065 223.369 286.704 223.369 C 288.683 223.369 291.322 224.677 292.641 226.639 Z M 365.867 151.44 C 369.166 151.44 372.464 154.71 372.464 157.979 L 372.464 360.687 C 372.464 363.956 369.166 367.226 365.867 367.226 L 101.99 367.226 C 98.031 367.226 95.393 363.956 95.393 360.687 L 95.393 157.979 C 95.393 154.71 98.031 151.44 101.99 151.44 L 365.867 151.44 Z M 264.274 284.835 L 248.442 314.914 L 270.871 354.148 L 353.993 354.148 L 311.112 283.528 L 289.343 294.644 C 288.683 295.297 288.023 295.297 286.704 295.297 C 285.384 295.297 284.725 295.297 283.405 294.644 L 264.274 284.835 Z M 255.698 354.148 L 218.755 290.067 L 183.132 301.836 C 182.472 301.836 181.812 301.836 181.153 301.836 C 180.493 301.836 179.833 301.836 179.174 301.836 L 146.189 290.72 L 112.545 354.148 L 255.698 354.148 Z"></path>
    <path style="fill: rgb(122, 201, 67);" d="M 218.755 289.412 L 183.132 301.836 C 182.472 301.836 181.812 301.836 181.153 301.836 C 180.493 301.836 179.833 301.836 179.174 301.836 L 157.404 294.644 L 144.87 331.262 C 142.891 336.493 146.189 341.724 152.126 343.032 L 220.734 354.148 L 255.698 354.148 L 218.755 289.412 Z"></path>
    <polygon style="fill: rgb(255, 248, 239);" points="181.153 288.758 212.158 278.296 181.153 224.023 161.362 282.219"></polygon>
    <g transform="matrix(0.824617, 0, 0, 0.81737, 42.61771, 27.200077)" style="">
      <polygon style="fill:#67BC34;" points="276.8,400 336,400 268,384.8 	"></polygon>
      <polygon style="fill:#67BC34;" points="268.8,315.2 249.6,352 264.8,380 280.8,321.6 	"></polygon>
    </g>
    <polygon style="fill: rgb(217, 205, 193);" points="161.397 345.739 170.633 311.736 154.14 342.469"></polygon>
    <g transform="matrix(1, 0, 0, 1, -78.570999, 112.987968)">
      <polygon style="fill: rgb(255, 248, 239);" points="397.418 111.332 415.23 140.758 397.418 149.912 380.925 142.065"></polygon>
      <path style="fill: rgb(122, 201, 67);" d="M 422.486 151.874 L 464.707 222.494 L 381.585 222.494 L 359.156 183.26 L 374.988 153.835 L 394.779 163.643 C 395.439 163.643 396.098 163.643 397.418 163.643 C 398.737 163.643 399.397 163.643 400.716 162.99 L 422.486 151.874 Z"></path>
      <path style="fill: rgb(108, 211, 216);" d="M 436.999 78.637 C 448.214 78.637 456.79 69.482 456.79 59.02 C 456.79 48.558 448.214 39.403 436.999 39.403 C 425.785 39.403 417.209 48.558 417.209 59.02 C 417.209 69.482 425.785 78.637 436.999 78.637 Z M 219.3 32.864 L 469.984 32.864 L 469.984 205.493 L 403.355 94.985 C 402.036 93.023 399.397 91.715 397.418 91.715 C 394.779 91.715 392.8 93.023 391.481 94.985 L 351.239 169.529 L 297.804 75.368 C 296.485 73.406 293.846 72.098 291.867 72.098 C 289.228 72.098 287.249 73.406 285.93 75.368 L 219.3 202.224 L 219.3 32.864 Z"></path>
      <circle style="fill: rgb(255, 125, 0);" cx="278.964" cy="139.131" r="8" transform="matrix(0.824617, 0, 0, 0.81737, 206.961243, -54.701801)"></circle>
      <path style="" d="M 436.999 52.481 C 433.701 52.481 430.402 55.751 430.402 59.02 C 430.402 62.29 433.701 65.559 436.999 65.559 C 440.298 65.559 443.596 62.29 443.596 59.02 C 443.596 55.751 440.298 52.481 436.999 52.481 Z M 417.209 59.02 C 417.209 48.558 425.785 39.403 436.999 39.403 C 448.214 39.403 456.79 48.558 456.79 59.02 C 456.79 69.482 448.214 78.637 436.999 78.637 C 425.785 78.637 417.209 69.482 417.209 59.02 Z"></path>
      <polygon style="fill: rgb(217, 205, 193);" points="291.867 92.369 322.872 146.642 291.867 157.104 262.84 147.296"></polygon>
      <path style="fill: rgb(103, 188, 52);" d="M 289.888 170.182 C 290.547 170.182 291.207 170.182 291.867 170.182 C 292.526 170.182 293.186 170.182 293.846 170.182 L 329.469 158.413 L 366.412 222.494 L 223.259 222.494 L 256.903 159.066 L 289.888 170.182 Z"></path>
      <path style="" d="M 397.418 111.332 L 380.925 141.411 L 397.418 149.258 L 415.23 140.103 L 397.418 111.332 Z M 322.872 146.642 L 291.867 92.369 L 262.84 147.296 L 291.867 157.104 L 322.872 146.642 Z M 403.355 94.985 L 469.984 205.493 L 469.984 32.864 L 219.3 32.864 L 219.3 202.224 L 285.93 75.368 C 287.249 73.406 289.228 72.098 291.867 72.098 C 294.506 72.098 296.485 73.406 297.804 75.368 L 351.239 169.529 L 391.481 94.985 C 392.8 93.023 394.779 91.715 397.418 91.715 C 399.397 91.715 402.036 93.023 403.355 94.985 Z M 476.581 19.786 C 479.88 19.786 483.178 23.056 483.178 26.325 L 483.178 229.033 C 483.178 232.302 479.88 235.572 476.581 235.572 L 212.704 235.572 C 208.745 235.572 206.107 232.302 206.107 229.033 L 206.107 26.325 C 206.107 23.056 208.745 19.786 212.704 19.786 L 476.581 19.786 Z M 374.988 153.181 L 359.156 183.26 L 381.585 222.494 L 464.707 222.494 L 421.826 151.874 L 400.057 162.99 C 399.397 163.643 398.737 163.643 397.418 163.643 C 396.098 163.643 395.439 163.643 394.119 162.99 L 374.988 153.181 Z M 366.412 222.494 L 329.469 158.413 L 293.846 170.182 C 293.186 170.182 292.526 170.182 291.867 170.182 C 291.207 170.182 290.547 170.182 289.888 170.182 L 256.903 159.066 L 223.259 222.494 L 366.412 222.494 Z"></path>
      <path style="fill: rgb(122, 201, 67);" d="M 329.469 157.758 L 293.846 170.182 C 293.186 170.182 292.526 170.182 291.867 170.182 C 291.207 170.182 290.547 170.182 289.888 170.182 L 268.118 162.99 L 255.584 199.608 C 253.605 204.839 256.903 210.07 262.84 211.378 L 331.448 222.494 L 366.412 222.494 L 329.469 157.758 Z"></path>
      <polygon style="fill: rgb(255, 248, 239);" points="291.867 157.104 322.872 146.642 291.867 92.369 272.076 150.565"></polygon>
      <g transform="matrix(0.824617, 0, 0, 0.81737, 153.33165, -104.454361)" style="">
        <polygon style="fill:#67BC34;" points="276.8,400 336,400 268,384.8 	"></polygon>
        <polygon style="fill:#67BC34;" points="268.8,315.2 249.6,352 264.8,380 280.8,321.6 	"></polygon>
      </g>
      <polygon style="fill: rgb(217, 205, 193);" points="388.182 145.335 397.418 111.332 380.925 142.065"></polygon>
    </g>
  </g>
</svg>