<svg viewBox="0 0 500 500" xmlns="http://www.w3.org/2000/svg">
    <path d="M 468.079 422.614 L 468.079 463.229 L 366.24 463.229 L 366.24 422.614 L 468.079 422.614 Z" id="Combined-Shape" style="" fill="#000000" stroke="none" stroke-width="1" fill-rule="evenodd"></path>
    <path d="M 244.034 36.771 C 334.024 36.771 406.976 109.507 406.976 199.231 C 406.976 228.823 399.04 256.566 385.176 280.462 L 335.121 280.464 C 354.472 258.907 366.24 230.439 366.24 199.231 C 366.24 131.938 311.526 77.386 244.034 77.386 C 176.541 77.386 121.829 131.938 121.829 199.231 C 121.829 203.063 122.006 206.854 122.353 210.595 L 142.196 190.819 L 171 219.539 L 101.461 288.873 L 31.921 219.539 L 60.726 190.819 L 81.557 211.583 C 81.25 207.505 81.093 203.387 81.093 199.231 C 81.093 109.507 154.044 36.771 244.034 36.771 Z" id="Combined-Shape" style="" fill="#000000" stroke="none" stroke-width="1" fill-rule="evenodd"></path>
    <path d="M 345.873 300.769 L 345.873 341.384 L 305.137 341.384 L 305.137 300.769 L 345.873 300.769 Z" id="Combined-Shape" style="" fill="#000000" stroke="none" stroke-width="1" fill-rule="evenodd"></path>
    <path d="M 468.079 300.769 L 468.079 341.384 L 366.24 341.384 L 366.24 300.769 L 468.079 300.769 Z" id="Combined-Shape" style="" fill="#000000" stroke="none" stroke-width="1" fill-rule="evenodd"></path>
    <path d="M 157.621 285.388 C 179.737 307.439 210.288 321.077 244.034 321.077 C 258.318 321.077 272.029 318.633 284.771 314.143 L 284.771 356.573 C 271.751 359.914 258.1 361.691 244.034 361.691 C 199.039 361.691 158.303 343.507 128.816 314.107 L 157.621 285.388 Z" id="Combined-Shape" style="" fill="#000000" stroke="none" stroke-width="1" fill-rule="evenodd"></path>
    <path d="M 345.873 361.691 L 345.873 402.307 L 305.137 402.307 L 305.137 361.691 L 345.873 361.691 Z" id="Combined-Shape" style="" fill="#000000" stroke="none" stroke-width="1" fill-rule="evenodd"></path>
    <path d="M 468.079 361.691 L 468.079 402.307 L 366.24 402.307 L 366.24 361.691 L 468.079 361.691 Z" id="Combined-Shape" style="" fill="#000000" stroke="none" stroke-width="1" fill-rule="evenodd"></path>
    <path d="M 345.873 422.614 L 345.873 463.229 L 305.137 463.229 L 305.137 422.614 L 345.873 422.614 Z" id="Combined-Shape" style="" fill="#000000" stroke="none" stroke-width="1" fill-rule="evenodd"></path>
    <path d="M 175.328 139.984 C 176.672 128.329 190.515 112.498 201.518 114.25 L 201.494 114.238 C 212.189 116.456 220.656 136.58 225.431 145.63 C 228.816 152.205 226.623 158.857 223.462 161.656 C 219.204 165.406 212.555 170.589 213.945 175.785 C 216.434 185.029 245.914 217.259 260.407 226.412 C 265.902 229.879 269.876 220.739 273.272 216.045 C 275.748 212.449 281.833 210.297 287.835 213.856 C 296.786 219.553 305.215 226.167 313.011 233.63 C 316.902 237.19 317.81 242.436 315.121 248.006 C 310.369 257.791 296.62 270.696 286.644 268.078 C 269.216 263.49 198.746 233.63 176.106 147.101 C 174.833 143.001 175.152 141.454 175.328 139.984 Z" style=""></path>
</svg>